<?xml version="1.0" encoding="UTF-8" standalone="no"?>
<svg xmlns="http://www.w3.org/2000/svg" width="60" height="60" viewBox="0 0 60 60" fill="none">
  <rect width="60" height="60" rx="4" fill="#7A4AE2"/>
  <path d="M20 18H40M20 30H40M20 42H40" stroke="white" stroke-width="4" stroke-linecap="round"/>
  <path fill-rule="evenodd" clip-rule="evenodd" d="M25 22C26.6569 22 28 20.6569 28 19C28 17.3431 26.6569 16 25 16C23.3431 16 22 17.3431 22 19C22 20.6569 23.3431 22 25 22Z" fill="white"/>
  <path fill-rule="evenodd" clip-rule="evenodd" d="M35 34C36.6569 34 38 32.6569 38 31C38 29.3431 36.6569 28 35 28C33.3431 28 32 29.3431 32 31C32 32.6569 33.3431 34 35 34Z" fill="white"/>
  <path fill-rule="evenodd" clip-rule="evenodd" d="M25 46C26.6569 46 28 44.6569 28 43C28 41.3431 26.6569 40 25 40C23.3431 40 22 41.3431 22 43C22 44.6569 23.3431 46 25 46Z" fill="white"/>
</svg> 